<svg xmlns="http://www.w3.org/2000/svg" id="Capa_2" data-name="Capa 2" viewBox="0 0 346.64 63.01"><defs><style>      .cls-1 {        fill: #ff5000;      }    </style></defs><g id="Capa_1-2" data-name="Capa 1"><g><g><polygon points="130.08 28.81 130.08 33.44 104.68 33.44 104.68 54.02 99.02 54.02 99.02 9 133.68 9 133.68 13.63 104.68 13.63 104.68 28.81 130.08 28.81"></polygon><path d="M145.45,54.02h-5.4V21.35h5.4v32.67ZM139.86,9h5.79v4.63h-5.79v-4.63Z"></path><path d="M161.08,21.35v4.69c1.48-2.31,3.34-3.67,4.69-4.37,2.57-1.35,5.27-1.54,7.78-1.54,3.47,0,8.04.45,10.87,3.34,2.64,2.64,2.83,6.17,2.83,8.42v22.12h-5.4v-19.87c0-2.76-.13-6.05-2.25-8.1-1.54-1.54-4.24-2.19-6.94-2.19-2.89,0-5.79.58-8.17,2.96-1.67,1.67-3.34,4.57-3.34,10.48v16.72h-5.53V21.35h5.47Z"></path><path d="M226.68,35.24c.13-5.15-2.76-8.04-3.28-8.49-2.83-2.64-6.82-2.96-9.45-2.96s-6.62.39-9.45,3.28c-1.8,1.8-3.15,4.82-3.22,8.17h25.4ZM231.38,44.31c-.51,6.75-5.66,9.07-6.88,9.58-2.89,1.16-6.37,1.41-10.29,1.41-4.57,0-10.1-.32-14.08-4.31-2.12-2.12-4.37-6.11-4.37-13.06,0-3.47.51-8.94,4.63-13.05,4.05-4.05,9.52-4.82,13.57-4.82,6.3,0,10.8,1.35,13.89,4.5,3.6,3.73,4.24,8.55,4.24,13.38v.77h-30.93v.26c0,2.31.26,6.37,3.28,9.39,2.96,2.96,6.88,3.22,9.97,3.22,3.66,0,6.3-.52,8.23-1.61,2.77-1.61,3.41-3.92,3.54-5.66h5.21Z"></path><polygon points="261.35 21.35 267.4 21.35 254.34 36.85 268.3 54.02 261.8 54.02 251.13 40 240.26 54.02 233.95 54.02 248.04 37.11 234.79 21.35 241.09 21.35 251.25 34.21 261.35 21.35"></polygon><path d="M301.1,35.24c.13-5.15-2.76-8.04-3.28-8.49-2.83-2.64-6.82-2.96-9.45-2.96s-6.62.39-9.45,3.28c-1.8,1.8-3.15,4.82-3.22,8.17h25.4ZM305.79,44.31c-.52,6.75-5.66,9.07-6.88,9.58-2.89,1.16-6.37,1.41-10.29,1.41-4.57,0-10.1-.32-14.08-4.31-2.12-2.12-4.37-6.11-4.37-13.06,0-3.47.51-8.94,4.63-13.05,4.05-4.05,9.52-4.82,13.57-4.82,6.3,0,10.8,1.35,13.89,4.5,3.6,3.73,4.24,8.55,4.24,13.38v.77h-30.93v.26c0,2.31.26,6.37,3.28,9.39,2.96,2.96,6.88,3.22,9.97,3.22,3.67,0,6.3-.52,8.23-1.61,2.77-1.61,3.41-3.92,3.54-5.66h5.21Z"></path><path d="M320.46,21.35v4.69c1.48-2.31,3.34-3.67,4.69-4.37,2.57-1.35,5.27-1.54,7.78-1.54,3.47,0,8.04.45,10.87,3.34,2.64,2.64,2.83,6.17,2.83,8.42v22.12h-5.4v-19.87c0-2.76-.13-6.05-2.25-8.1-1.54-1.54-4.24-2.19-6.95-2.19-2.89,0-5.79.58-8.17,2.96-1.67,1.67-3.34,4.57-3.34,10.48v16.72h-5.53V21.35h5.47Z"></path></g><g><path class="cls-1" d="M36.01,0c-9.94,0-18,8.06-18,18h54.01V0h-36.01Z"></path><path class="cls-1" d="M0,36.01c9.94,0,18-8.06,18-18H0v18Z"></path><path class="cls-1" d="M18,45.01h54.01v-18h-36.01c-9.94,0-18,8.06-18,18"></path><path class="cls-1" d="M0,63.01c9.94,0,18-8.06,18-18H0v18Z"></path></g></g></g></svg>